<mxfile host="app.diagrams.net" agent="Mozilla/5.0 (Windows NT 10.0; Win64; x64) AppleWebKit/537.36 (KHTML, like Gecko) Chrome/135.0.0.0 Safari/537.36" version="26.2.14">
  <diagram name="Página-1" id="e3vYxm0d-EvNvVdctVxu">
    <mxGraphModel grid="1" page="1" gridSize="10" guides="1" tooltips="1" connect="1" arrows="1" fold="1" pageScale="1" pageWidth="750" pageHeight="700" math="0" shadow="0">
      <root>
        <mxCell id="0" />
        <mxCell id="1" parent="0" />
        <mxCell id="8nfOI--BOTeC_YIaQQ0j-3" value="cliente" style="shape=umlActor;verticalLabelPosition=bottom;verticalAlign=top;html=1;outlineConnect=0;fillColor=#f5f5f5;fontColor=#333333;strokeColor=#666666;" vertex="1" parent="1">
          <mxGeometry x="130" y="340" width="30" height="60" as="geometry" />
        </mxCell>
        <mxCell id="8nfOI--BOTeC_YIaQQ0j-4" value="Medico" style="shape=umlActor;verticalLabelPosition=bottom;verticalAlign=top;html=1;outlineConnect=0;fillColor=#f5f5f5;fontColor=#333333;strokeColor=#666666;" vertex="1" parent="1">
          <mxGeometry x="580" y="290" width="30" height="60" as="geometry" />
        </mxCell>
        <object label="Administracion" g="" id="8nfOI--BOTeC_YIaQQ0j-5">
          <mxCell style="shape=umlActor;verticalLabelPosition=bottom;verticalAlign=top;html=1;outlineConnect=0;fillColor=#f5f5f5;fontColor=#333333;strokeColor=#666666;" vertex="1" parent="1">
            <mxGeometry x="200" y="180" width="30" height="60" as="geometry" />
          </mxCell>
        </object>
        <mxCell id="8nfOI--BOTeC_YIaQQ0j-7" value="revisar horarios de consulta&amp;nbsp;" style="strokeWidth=1;html=1;shape=mxgraph.flowchart.start_1;whiteSpace=wrap;fillColor=#f5f5f5;fontColor=#333333;strokeColor=#666666;" vertex="1" parent="1">
          <mxGeometry x="380" y="280" width="100" height="60" as="geometry" />
        </mxCell>
        <mxCell id="8nfOI--BOTeC_YIaQQ0j-8" value="Gestionar Citas" style="strokeWidth=1;html=1;shape=mxgraph.flowchart.start_1;whiteSpace=wrap;fillColor=#f5f5f5;fontColor=#333333;strokeColor=#666666;" vertex="1" parent="1">
          <mxGeometry x="325" y="200" width="100" height="60" as="geometry" />
        </mxCell>
        <mxCell id="8nfOI--BOTeC_YIaQQ0j-9" value="Reserva citas" style="strokeWidth=1;html=1;shape=mxgraph.flowchart.start_1;whiteSpace=wrap;fillColor=#f5f5f5;strokeColor=#666666;fontColor=#333333;" vertex="1" parent="1">
          <mxGeometry x="260" y="280" width="100" height="60" as="geometry" />
        </mxCell>
        <mxCell id="8nfOI--BOTeC_YIaQQ0j-11" value="pago de citas" style="strokeWidth=1;html=1;shape=mxgraph.flowchart.start_1;whiteSpace=wrap;fillColor=#f5f5f5;strokeColor=#666666;fontColor=#333333;" vertex="1" parent="1">
          <mxGeometry x="260" y="350" width="100" height="60" as="geometry" />
        </mxCell>
        <mxCell id="8nfOI--BOTeC_YIaQQ0j-12" value="notificación de citas" style="strokeWidth=1;html=1;shape=mxgraph.flowchart.start_1;whiteSpace=wrap;fillColor=#f5f5f5;strokeColor=#666666;fontColor=#333333;" vertex="1" parent="1">
          <mxGeometry x="340" y="420" width="100" height="60" as="geometry" />
        </mxCell>
        <mxCell id="8nfOI--BOTeC_YIaQQ0j-13" style="rounded=0;orthogonalLoop=1;jettySize=auto;html=1;exitX=0.5;exitY=0.5;exitDx=0;exitDy=0;exitPerimeter=0;entryX=1.02;entryY=0.617;entryDx=0;entryDy=0;entryPerimeter=0;fillColor=#f5f5f5;strokeColor=#666666;" edge="1" parent="1" source="8nfOI--BOTeC_YIaQQ0j-4" target="8nfOI--BOTeC_YIaQQ0j-7">
          <mxGeometry relative="1" as="geometry" />
        </mxCell>
        <mxCell id="8nfOI--BOTeC_YIaQQ0j-14" style="rounded=0;orthogonalLoop=1;jettySize=auto;html=1;exitX=0;exitY=1;exitDx=0;exitDy=0;exitPerimeter=0;entryX=1;entryY=0.5;entryDx=0;entryDy=0;entryPerimeter=0;fillColor=#f5f5f5;strokeColor=#666666;" edge="1" parent="1" source="8nfOI--BOTeC_YIaQQ0j-4" target="8nfOI--BOTeC_YIaQQ0j-12">
          <mxGeometry relative="1" as="geometry" />
        </mxCell>
        <mxCell id="B2MW9HhFcQfCOxFjMamN-3" style="rounded=0;orthogonalLoop=1;jettySize=auto;html=1;entryX=0;entryY=0.5;entryDx=0;entryDy=0;entryPerimeter=0;exitX=0.5;exitY=0.5;exitDx=0;exitDy=0;exitPerimeter=0;fillColor=#f5f5f5;strokeColor=#666666;" edge="1" parent="1" source="8nfOI--BOTeC_YIaQQ0j-5" target="8nfOI--BOTeC_YIaQQ0j-8">
          <mxGeometry relative="1" as="geometry" />
        </mxCell>
        <mxCell id="8nfOI--BOTeC_YIaQQ0j-15" style="rounded=0;orthogonalLoop=1;jettySize=auto;html=1;exitX=1;exitY=1;exitDx=0;exitDy=0;exitPerimeter=0;entryX=0;entryY=0.5;entryDx=0;entryDy=0;entryPerimeter=0;fillColor=#f5f5f5;strokeColor=#666666;" edge="1" parent="1" source="8nfOI--BOTeC_YIaQQ0j-3" target="8nfOI--BOTeC_YIaQQ0j-12">
          <mxGeometry relative="1" as="geometry" />
        </mxCell>
        <mxCell id="8nfOI--BOTeC_YIaQQ0j-16" style="rounded=0;orthogonalLoop=1;jettySize=auto;html=1;exitX=0.5;exitY=0.5;exitDx=0;exitDy=0;exitPerimeter=0;entryX=0;entryY=0.5;entryDx=0;entryDy=0;entryPerimeter=0;fillColor=#f5f5f5;strokeColor=#666666;" edge="1" parent="1" source="8nfOI--BOTeC_YIaQQ0j-3" target="8nfOI--BOTeC_YIaQQ0j-11">
          <mxGeometry relative="1" as="geometry" />
        </mxCell>
        <mxCell id="8nfOI--BOTeC_YIaQQ0j-19" value="" style="endArrow=classic;html=1;rounded=0;entryX=0;entryY=0.5;entryDx=0;entryDy=0;entryPerimeter=0;fillColor=#f5f5f5;strokeColor=#666666;" edge="1" parent="1" source="8nfOI--BOTeC_YIaQQ0j-3" target="8nfOI--BOTeC_YIaQQ0j-9">
          <mxGeometry width="50" height="50" relative="1" as="geometry">
            <mxPoint x="170" y="340" as="sourcePoint" />
            <mxPoint x="220" y="290" as="targetPoint" />
          </mxGeometry>
        </mxCell>
      </root>
    </mxGraphModel>
  </diagram>
</mxfile>
